<?xml version="1.0" encoding="UTF-8"?><svg xmlns="http://www.w3.org/2000/svg" xmlns:xlink="http://www.w3.org/1999/xlink" viewBox="0 0 230 276"><defs><style>.j{fill:#4a008b;}.k{fill:url(#f);}.l{fill:url(#g);}.m{fill:url(#i);}.n{fill:url(#h);}.o{fill:url(#d);}.p{fill:url(#e);}</style><linearGradient id="d" x1="108.94" y1="164.23" x2="62.75" y2="367.22" gradientTransform="matrix(1, 0, 0, 1, 0, 0)" gradientUnits="userSpaceOnUse"><stop offset="0" stop-color="#f900bf"/><stop offset="1" stop-color="#9900f0"/></linearGradient><linearGradient id="e" x1="321.99" y1="-1.06" x2="100.13" y2="227.3" gradientTransform="matrix(1, 0, 0, 1, 0, 0)" gradientUnits="userSpaceOnUse"><stop offset="0" stop-color="#fff"/><stop offset="1" stop-color="#000"/></linearGradient><linearGradient id="f" x1="21.96" y1="317.18" x2="53.84" y2="-14.63" xlink:href="#e"/><linearGradient id="g" x1="292.94" y1="81.98" x2="129.64" y2="171.76" xlink:href="#e"/><linearGradient id="h" x1="60.15" y1="79.27" x2="252.73" y2="247.12" xlink:href="#d"/><linearGradient id="i" x1="-116.23" y1="226.28" x2="103.68" y2="100.07" xlink:href="#e"/></defs><g id="a"/><g id="b"><g id="c"><path class="o" d="M173.67,274.43c-4.11,.77-8.34,1.17-12.67,1.17-8.07,0-15.81-1.38-23-3.93-19.47-6.88-34.93-22.25-41.93-41.67-2.64-7.31-4.07-15.18-4.07-23.4V45.6c0-21.86-15.24-40.15-35.67-44.83,1.73-.33,3.48-.59,5.25-.77h14.84c2.93,.31,5.8,.8,8.61,1.48,17.5,6.5,29.97,23.35,29.97,43.12V205.6c0,8.22,1.43,16.09,4.07,23.4,7,19.42,22.46,34.79,41.93,41.67,2.29,.81,4.62,1.5,7.01,2.07,1.84,.68,3.72,1.25,5.66,1.69Z"/><path class="j" d="M168.01,272.74c-2.39-.57-4.72-1.26-7.01-2.07-19.47-6.88-34.93-22.25-41.93-41.67-2.64-7.31-4.07-15.18-4.07-23.4V44.6c0-19.77-12.47-36.62-29.97-43.12,2.37,.56,4.7,1.24,6.97,2.05,19.74,6.97,35.36,22.67,42.21,42.47,2.46,7.08,3.79,14.68,3.79,22.6V206.6c0,3.37,.72,6.56,2.03,9.44h0c-1.32,4.3-2.03,8.84-2.03,13.56v.4h.01c.16,19.61,12.59,36.3,30,42.74Z"/><path class="p" d="M230,0V206.6c0,4.33-.4,8.56-1.17,12.67-.67,3.69-1.65,7.27-2.9,10.73-6.57,18.22-20.58,32.87-38.37,40.3-1.17,.49-2.36,.94-3.56,1.37-2.77,.98-5.62,1.79-8.55,2.4-.59,.13-1.18,.25-1.78,.36-1.94-.44-3.82-1.01-5.66-1.69-17.41-6.44-29.84-23.13-30-42.74-.01-.13-.01-.27-.01-.4,0-4.72,.71-9.26,2.03-13.55,3.6,7.99,11.64,13.55,20.97,13.55h.02c12.69-.01,22.98-10.31,22.98-23V0h46Z"/><path class="k" d="M92,45.6c0-21.86-15.24-40.15-35.67-44.83-3.55,.65-7,1.58-10.33,2.76-8.57,3.03-16.36,7.7-23,13.64C14.35,24.9,7.67,34.8,3.79,46c-1.12,3.21-2,6.53-2.62,9.93-.77,4.11-1.17,8.34-1.17,12.67v207.4H46V68.6c0-11.26,8.09-20.63,18.77-22.6,1.37-.27,2.79-.4,4.23-.4s2.86,.13,4.23,.4c7.48,1.38,13.69,6.4,16.74,13.15h0c1.31,2.89,2.03,6.08,2.03,9.45v-22.6h-.01c.01-.13,.01-.27,.01-.4Z"/><path class="l" d="M206.5,258.5V.5h23V207.23c0,4.32-.4,8.53-1.17,12.63-.62,3.39-1.5,6.7-2.62,9.9-3.88,11.16-10.56,21.03-19.21,28.74Z"/><path class="n" d="M168.01,272.74c-2.39-.57-4.72-1.26-7.01-2.07-19.47-6.88-34.93-22.25-41.93-41.67-2.64-7.31-4.07-15.18-4.07-23.4V44.6c0-19.77-12.47-36.62-29.97-43.12,2.37,.56,4.7,1.24,6.97,2.05,19.74,6.97,35.36,22.67,42.21,42.47,2.46,7.08,3.79,14.68,3.79,22.6V206.6c0,3.37,.72,6.56,2.03,9.44h0c-1.32,4.3-2.03,8.84-2.03,13.56v.4h.01c.16,19.61,12.59,36.3,30,42.74Z"/><path class="m" d="M23.5,16.67V275.5H.5V68.1c0-4.33,.4-8.56,1.17-12.67,.62-3.4,1.5-6.72,2.62-9.93,3.88-11.2,10.56-21.1,19.21-28.83Z"/></g></g></svg>